<mxfile host="Electron" agent="Mozilla/5.0 (Windows NT 10.0; Win64; x64) AppleWebKit/537.36 (KHTML, like Gecko) draw.io/24.7.17 Chrome/128.0.6613.36 Electron/32.0.1 Safari/537.36" version="24.7.17">
  <diagram name="Página-1" id="lk8_QNGoHCp43ROHWMky">
    <mxGraphModel dx="988" dy="573" grid="1" gridSize="10" guides="1" tooltips="1" connect="1" arrows="1" fold="1" page="1" pageScale="1" pageWidth="827" pageHeight="1169" math="0" shadow="0">
      <root>
        <mxCell id="0" />
        <mxCell id="1" parent="0" />
        <mxCell id="l-nN1dU6o-FZF6r7usxP-1" value="CURSO" style="whiteSpace=wrap;html=1;align=center;" parent="1" vertex="1">
          <mxGeometry x="65" y="120" width="70" height="40" as="geometry" />
        </mxCell>
        <mxCell id="l-nN1dU6o-FZF6r7usxP-2" value="ALUMNO" style="whiteSpace=wrap;html=1;align=center;" parent="1" vertex="1">
          <mxGeometry x="60" y="360" width="80" height="40" as="geometry" />
        </mxCell>
        <mxCell id="l-nN1dU6o-FZF6r7usxP-3" value="PROFESOR" style="whiteSpace=wrap;html=1;align=center;" parent="1" vertex="1">
          <mxGeometry x="500" y="120" width="90" height="40" as="geometry" />
        </mxCell>
        <mxCell id="l-nN1dU6o-FZF6r7usxP-4" value="Dirigir" style="shape=rhombus;perimeter=rhombusPerimeter;whiteSpace=wrap;html=1;align=center;" parent="1" vertex="1">
          <mxGeometry x="260" y="110" width="120" height="60" as="geometry" />
        </mxCell>
        <mxCell id="l-nN1dU6o-FZF6r7usxP-5" value="Matricular" style="shape=rhombus;perimeter=rhombusPerimeter;whiteSpace=wrap;html=1;align=center;" parent="1" vertex="1">
          <mxGeometry x="40" y="230" width="120" height="60" as="geometry" />
        </mxCell>
        <mxCell id="l-nN1dU6o-FZF6r7usxP-6" value="" style="endArrow=none;html=1;rounded=0;exitX=0.5;exitY=1;exitDx=0;exitDy=0;entryX=0.5;entryY=0;entryDx=0;entryDy=0;edgeStyle=orthogonalEdgeStyle;verticalAlign=bottom;" parent="1" source="l-nN1dU6o-FZF6r7usxP-1" target="l-nN1dU6o-FZF6r7usxP-5" edge="1">
          <mxGeometry relative="1" as="geometry">
            <mxPoint x="180" y="150" as="sourcePoint" />
            <mxPoint x="434" y="400" as="targetPoint" />
          </mxGeometry>
        </mxCell>
        <mxCell id="l-nN1dU6o-FZF6r7usxP-19" value="0, 1" style="edgeLabel;html=1;align=center;verticalAlign=middle;resizable=0;points=[];" parent="l-nN1dU6o-FZF6r7usxP-6" vertex="1" connectable="0">
          <mxGeometry x="-0.0429" relative="1" as="geometry">
            <mxPoint as="offset" />
          </mxGeometry>
        </mxCell>
        <mxCell id="l-nN1dU6o-FZF6r7usxP-7" value="0, M" style="endArrow=none;html=1;rounded=0;exitX=0.5;exitY=0;exitDx=0;exitDy=0;entryX=0.5;entryY=1;entryDx=0;entryDy=0;edgeStyle=orthogonalEdgeStyle;verticalAlign=bottom;" parent="1" source="l-nN1dU6o-FZF6r7usxP-2" target="l-nN1dU6o-FZF6r7usxP-5" edge="1">
          <mxGeometry relative="1" as="geometry">
            <mxPoint x="110" y="170" as="sourcePoint" />
            <mxPoint x="110" y="240" as="targetPoint" />
          </mxGeometry>
        </mxCell>
        <mxCell id="l-nN1dU6o-FZF6r7usxP-8" value="0, M" style="endArrow=none;html=1;rounded=0;exitX=0;exitY=0.5;exitDx=0;exitDy=0;entryX=1;entryY=0.5;entryDx=0;entryDy=0;edgeStyle=orthogonalEdgeStyle;verticalAlign=bottom;" parent="1" source="l-nN1dU6o-FZF6r7usxP-4" target="l-nN1dU6o-FZF6r7usxP-1" edge="1">
          <mxGeometry relative="1" as="geometry">
            <mxPoint x="115" y="170" as="sourcePoint" />
            <mxPoint x="115" y="240" as="targetPoint" />
          </mxGeometry>
        </mxCell>
        <mxCell id="l-nN1dU6o-FZF6r7usxP-9" value="1, 1" style="endArrow=none;html=1;rounded=0;exitX=1;exitY=0.5;exitDx=0;exitDy=0;entryX=0;entryY=0.5;entryDx=0;entryDy=0;edgeStyle=orthogonalEdgeStyle;verticalAlign=bottom;" parent="1" source="l-nN1dU6o-FZF6r7usxP-4" target="l-nN1dU6o-FZF6r7usxP-3" edge="1">
          <mxGeometry relative="1" as="geometry">
            <mxPoint x="270" y="150" as="sourcePoint" />
            <mxPoint x="150" y="150" as="targetPoint" />
          </mxGeometry>
        </mxCell>
        <mxCell id="l-nN1dU6o-FZF6r7usxP-10" value="&lt;u&gt;idProfesor&lt;/u&gt;" style="ellipse;whiteSpace=wrap;html=1;align=center;" parent="1" vertex="1">
          <mxGeometry x="495" y="40" width="100" height="40" as="geometry" />
        </mxCell>
        <mxCell id="l-nN1dU6o-FZF6r7usxP-11" value="&lt;u&gt;idCurso&lt;/u&gt;" style="ellipse;whiteSpace=wrap;html=1;align=center;" parent="1" vertex="1">
          <mxGeometry x="50" y="40" width="100" height="40" as="geometry" />
        </mxCell>
        <mxCell id="l-nN1dU6o-FZF6r7usxP-12" value="&lt;u&gt;idAlumno&lt;/u&gt;" style="ellipse;whiteSpace=wrap;html=1;align=center;" parent="1" vertex="1">
          <mxGeometry x="180" y="360" width="100" height="40" as="geometry" />
        </mxCell>
        <mxCell id="l-nN1dU6o-FZF6r7usxP-13" value="" style="endArrow=none;html=1;rounded=0;exitX=0.5;exitY=1;exitDx=0;exitDy=0;entryX=0.5;entryY=0;entryDx=0;entryDy=0;edgeStyle=orthogonalEdgeStyle;verticalAlign=bottom;" parent="1" source="l-nN1dU6o-FZF6r7usxP-11" target="l-nN1dU6o-FZF6r7usxP-1" edge="1">
          <mxGeometry relative="1" as="geometry">
            <mxPoint x="370" y="140" as="sourcePoint" />
            <mxPoint x="624" y="390" as="targetPoint" />
          </mxGeometry>
        </mxCell>
        <mxCell id="l-nN1dU6o-FZF6r7usxP-14" value="" style="endArrow=none;html=1;rounded=0;exitX=0.5;exitY=1;exitDx=0;exitDy=0;entryX=0.5;entryY=0;entryDx=0;entryDy=0;edgeStyle=orthogonalEdgeStyle;verticalAlign=bottom;" parent="1" source="l-nN1dU6o-FZF6r7usxP-10" target="l-nN1dU6o-FZF6r7usxP-3" edge="1">
          <mxGeometry relative="1" as="geometry">
            <mxPoint x="110" y="90" as="sourcePoint" />
            <mxPoint x="110" y="130" as="targetPoint" />
          </mxGeometry>
        </mxCell>
        <mxCell id="l-nN1dU6o-FZF6r7usxP-15" value="" style="endArrow=none;html=1;rounded=0;exitX=0;exitY=0.5;exitDx=0;exitDy=0;entryX=1;entryY=0.5;entryDx=0;entryDy=0;edgeStyle=orthogonalEdgeStyle;verticalAlign=bottom;" parent="1" source="l-nN1dU6o-FZF6r7usxP-12" target="l-nN1dU6o-FZF6r7usxP-2" edge="1">
          <mxGeometry relative="1" as="geometry">
            <mxPoint x="110" y="90" as="sourcePoint" />
            <mxPoint x="110" y="130" as="targetPoint" />
          </mxGeometry>
        </mxCell>
        <mxCell id="l-nN1dU6o-FZF6r7usxP-16" value="Un curso puede ser dirigido como mucho por 1 profesor" style="text;html=1;align=left;verticalAlign=top;whiteSpace=wrap;rounded=0;" parent="1" vertex="1">
          <mxGeometry x="380" y="140" width="120" height="60" as="geometry" />
        </mxCell>
        <mxCell id="l-nN1dU6o-FZF6r7usxP-17" value="0 porque puede que un profesor no diriga ningún curso y cada profesor puede dirigir varios cursos" style="text;html=1;align=left;verticalAlign=top;whiteSpace=wrap;rounded=0;" parent="1" vertex="1">
          <mxGeometry x="140" y="140" width="120" height="90" as="geometry" />
        </mxCell>
        <mxCell id="l-nN1dU6o-FZF6r7usxP-21" value="&lt;b&gt;M : 1&amp;nbsp;&lt;/b&gt;&lt;div&gt;&lt;b&gt;opcional - obligatorio&lt;/b&gt;&lt;/div&gt;" style="text;html=1;align=center;verticalAlign=middle;whiteSpace=wrap;rounded=0;" parent="1" vertex="1">
          <mxGeometry x="230" y="80" width="180" height="30" as="geometry" />
        </mxCell>
        <mxCell id="l-nN1dU6o-FZF6r7usxP-22" value="&lt;b&gt;1 : M opcional - opcional&lt;/b&gt;" style="text;html=1;align=left;verticalAlign=middle;whiteSpace=wrap;rounded=0;" parent="1" vertex="1">
          <mxGeometry x="169" y="247.5" width="151" height="25" as="geometry" />
        </mxCell>
      </root>
    </mxGraphModel>
  </diagram>
</mxfile>
